<svg width="1280" height="832" viewBox="0 0 1280 832" fill="none" xmlns="http://www.w3.org/2000/svg">
<g clip-path="url(#clip0_380_638)">
<rect width="1280" height="832" fill="#278E8D"/>
<rect x="-169" y="708.139" width="300" height="300" rx="80" transform="rotate(-26.3464 -169 708.139)" fill="#B2F3DF"/>
<path d="M1133.08 706.226C1106.52 670.911 1113.63 620.758 1148.94 594.207L1260.84 510.075C1296.16 483.524 1346.31 490.628 1372.86 525.944L1457 637.845C1483.55 673.16 1476.44 723.312 1441.13 749.863L1329.23 833.995C1293.91 860.546 1243.76 853.442 1217.21 818.127L1133.08 706.226Z" fill="#F4CA82"/>
<path d="M799.075 -5.77439C772.524 -41.0894 779.628 -91.2419 814.944 -117.793L926.845 -201.925C962.16 -228.476 1012.31 -221.372 1038.86 -186.056L1123 -74.1553C1149.55 -38.8403 1142.44 11.3122 1107.13 37.8634L995.226 121.995C959.911 148.546 909.758 141.442 883.207 106.127L799.075 -5.77439Z" fill="#313036"/>
</g>
<defs>
<clipPath id="clip0_380_638">
<rect width="1280" height="832" fill="white"/>
</clipPath>
</defs>
</svg>
